<svg width="25" height="24" viewBox="0 0 25 24" fill="none" xmlns="http://www.w3.org/2000/svg">
<path fill-rule="evenodd" clip-rule="evenodd" d="M9.65989 7.90501C9.80052 8.04546 9.99114 8.12435 10.1899 8.12435C10.3886 8.12435 10.5793 8.04546 10.7199 7.90501L12.4399 6.18501V14.375C12.4399 14.5739 12.5189 14.7647 12.6596 14.9053C12.8002 15.046 12.991 15.125 13.1899 15.125C13.3888 15.125 13.5796 15.046 13.7202 14.9053C13.8609 14.7647 13.9399 14.5739 13.9399 14.375V6.18501L15.6599 7.90501C15.7286 7.9787 15.8114 8.0378 15.9034 8.07879C15.9954 8.11978 16.0947 8.14183 16.1954 8.1436C16.2961 8.14538 16.3961 8.12686 16.4895 8.08913C16.5829 8.05141 16.6677 7.99527 16.7389 7.92405C16.8101 7.85283 16.8663 7.768 16.904 7.67461C16.9417 7.58122 16.9603 7.48119 16.9585 7.38049C16.9567 7.27979 16.9347 7.18047 16.8937 7.08847C16.8527 6.99647 16.7936 6.91367 16.7199 6.84501L13.7199 3.84501C13.5793 3.70456 13.3886 3.62567 13.1899 3.62567C12.9911 3.62567 12.8005 3.70456 12.6599 3.84501L9.65989 6.84501C9.51944 6.98564 9.44055 7.17626 9.44055 7.37501C9.44055 7.57376 9.51944 7.76439 9.65989 7.90501Z" fill="#9C9C9C"/>
<path d="M13.1899 20.375C15.3116 20.375 17.3464 19.5321 18.8467 18.0319C20.347 16.5316 21.1899 14.4967 21.1899 12.375H17.4399C16.4969 12.375 16.0259 12.375 15.7329 12.668C15.4399 12.961 15.4399 13.432 15.4399 14.375C15.4399 14.9717 15.2028 15.544 14.7809 15.966C14.3589 16.3879 13.7866 16.625 13.1899 16.625C12.5931 16.625 12.0208 16.3879 11.5989 15.966C11.1769 15.544 10.9399 14.9717 10.9399 14.375C10.9399 13.432 10.9399 12.961 10.6469 12.668C10.3539 12.375 9.88288 12.375 8.93988 12.375H5.18988C5.18988 14.4967 6.03274 16.5316 7.53303 18.0319C9.03332 19.5321 11.0681 20.375 13.1899 20.375Z" fill="#9C9C9C"/>
</svg>
