<svg width="25" height="26" viewBox="0 0 25 26" fill="none" xmlns="http://www.w3.org/2000/svg">
<path fill-rule="evenodd" clip-rule="evenodd" d="M15.6355 17.0984C15.495 16.9578 15.3045 16.8787 15.1057 16.8785C14.907 16.8783 14.7163 16.957 14.5755 17.0973L12.8536 18.8154L12.8625 10.6254C12.8627 10.4265 12.7839 10.2356 12.6434 10.0948C12.5029 9.95403 12.3122 9.87481 12.1133 9.87459C11.9144 9.87438 11.7236 9.95319 11.5828 10.0937C11.4419 10.2342 11.3627 10.4249 11.3625 10.6238L11.3536 18.8138L9.63549 17.0919C9.56691 17.0181 9.48417 16.959 9.39222 16.9179C9.30026 16.8768 9.20098 16.8546 9.10027 16.8527C8.99957 16.8509 8.89952 16.8693 8.8061 16.9069C8.71267 16.9445 8.62777 17.0006 8.55648 17.0717C8.48518 17.1428 8.42894 17.2276 8.39112 17.321C8.3533 17.4143 8.33467 17.5143 8.33633 17.615C8.338 17.7157 8.35993 17.8151 8.40083 17.9071C8.44172 17.9992 8.50073 18.082 8.57434 18.1508L11.5711 21.154C11.7116 21.2946 11.9021 21.3737 12.1009 21.3739C12.2996 21.3741 12.4903 21.2955 12.6311 21.1552L15.6343 18.1584C15.7749 18.0179 15.854 17.8274 15.8543 17.6287C15.8545 17.4299 15.7758 17.2392 15.6355 17.0984Z" fill="#9C9C9C"/>
<path d="M12.119 4.6246C9.9973 4.6223 7.96156 5.46295 6.45964 6.96161C4.95772 8.46027 4.11266 10.4942 4.11036 12.6159L7.86036 12.62C8.80336 12.621 9.27436 12.6215 9.56768 12.3288C9.86099 12.0362 9.8615 11.5652 9.86253 10.6222C9.86317 10.0254 10.1008 9.45338 10.5233 9.03188C10.9457 8.61038 11.5182 8.37395 12.115 8.3746C12.7117 8.37524 13.2837 8.61292 13.7052 9.03533C14.1267 9.45775 14.3632 10.0303 14.3625 10.627C14.3615 11.57 14.361 12.041 14.6537 12.3344C14.9464 12.6277 15.4174 12.6282 16.3604 12.6292L20.1104 12.6333C20.1127 10.5115 19.272 8.47579 17.7733 6.97388C16.2747 5.47196 14.2408 4.6269 12.119 4.6246Z" fill="#9C9C9C"/>
</svg>
