<svg width="30" height="30" viewBox="0 0 30 30" fill="none" xmlns="http://www.w3.org/2000/svg">
<path fill-rule="evenodd" clip-rule="evenodd" d="M27.5 14.9999C27.5 21.9036 21.9038 27.4999 15 27.4999C8.09625 27.4999 2.5 21.9036 2.5 14.9999C2.5 8.09613 8.09625 2.49988 15 2.49988C21.9038 2.49988 27.5 8.09613 27.5 14.9999ZM10.1388 19.8611C10.0216 19.7439 9.95576 19.585 9.95576 19.4193C9.95576 19.2535 10.0216 19.0946 10.1388 18.9774L14.1163 14.9999L10.1388 11.0224C10.0249 10.9045 9.96191 10.7466 9.96333 10.5828C9.96475 10.4189 10.0305 10.2621 10.1464 10.1462C10.2622 10.0304 10.419 9.96463 10.5829 9.96321C10.7467 9.96178 10.9046 10.0248 11.0225 10.1386L15 14.1161L18.9775 10.1386C19.0954 10.0248 19.2533 9.96178 19.4171 9.96321C19.581 9.96463 19.7378 10.0304 19.8536 10.1462C19.9695 10.2621 20.0352 10.4189 20.0367 10.5828C20.0381 10.7466 19.9751 10.9045 19.8613 11.0224L15.8838 14.9999L19.8613 18.9774C19.9751 19.0953 20.0381 19.2531 20.0367 19.417C20.0352 19.5809 19.9695 19.7376 19.8536 19.8535C19.7378 19.9694 19.581 20.0351 19.4171 20.0366C19.2533 20.038 19.0954 19.975 18.9775 19.8611L15 15.8836L11.0225 19.8611C10.9053 19.9783 10.7464 20.0441 10.5806 20.0441C10.4149 20.0441 10.256 19.9783 10.1388 19.8611Z" fill="#C3C3C3"/>
</svg>
